<svg xmlns="http://www.w3.org/2000/svg" xmlns:xlink="http://www.w3.org/1999/xlink">

<symbol id="orcid" fill-rule="evenodd" clip-rule="evenodd" stroke-linejoin="round" stroke-miterlimit="1.414"><path d="m 88.7,56.8 c 0,5.5 -4.5,10.1 -10.1,10.1 -5.6,0 -10.1,-4.6 -10.1,-10.1 0,-5.6 4.5,-10.1 10.1,-10.1 5.6,0 10.1,4.6 10.1,10.1 z m 20.2,22.3 h 41.6 c 39.6,0 57,28.3 57,53.6 0,27.5 -21.5,53.6 -56.8,53.6 H 108.9 V 79.1 Z m 15.4,93.3 h 24.5 c 34.9,0 42.9,-26.5 42.9,-39.7 C 191.7,111.2 178,93 148,93 h -23.7 z m -38,13.8 H 70.9 V 79.1 h 15.4 v 48.4 58.7 z M 256,128 C 256,198.7 198.7,256 128,256 57.3,256 0,198.7 0,128 0,57.3 57.3,0 128,0 198.7,0 256,57.3 256,128 Z"/></symbol>

</svg>
